# xmcd CD database file
#
# Track frame offsets:
#	150
#	19590
#	36625
#	52737
#	66700
#	85100
#	102240
#	121422
#	143297
#	162637
#	180322
#
# Disc length: 2718 seconds
#
# Revision: 0
# Processed by: cddbd v1.4PL0 Copyright (c) Steve Scherf et al.
# Submitted via: CDex 1.50Beta7
#
DISCID=8e0a9c0b
DTITLE=Vince Gill - When Love Finds You
DYEAR=1994
DGENRE=Country
TTITLE0=Whenever You Come Around
TTITLE1=You Better Think Twice
TTITLE2=A Real Lady's Man
TTITLE3=What The Cowgirls Do
TTITLE4=When Love Finds You
TTITLE5=If There's Anything I Can Do
TTITLE6=South Side Of Dixie
TTITLE7=Maybe Tonight
TTITLE8=Which Bridge To Cross  (Which Bridge To Burn)
TTITLE9=If I Had My Way
TTITLE10=Go Rest High On That Mountain
EXTD=YEAR: 1994
EXTT0=
EXTT1=
EXTT2=
EXTT3=
EXTT4=
EXTT5=
EXTT6=
EXTT7=
EXTT8=
EXTT9=
EXTT10=
PLAYORDER=
